<svg aria-hidden="true" style="position: absolute; width: 0; height: 0; overflow: hidden;" version="1.1" xmlns="http://www.w3.org/2000/svg" xmlns:xlink="http://www.w3.org/1999/xlink">
<defs>
<symbol id="icon-gryz" viewBox="0 0 32 32">
<path  d="M30.735 7.061l-14.529-7.014c-0.129-0.062-0.279-0.062-0.408 0l-14.529 7.014c-0.162 0.078-0.265 0.242-0.265 0.422v17.034c0 0.18 0.103 0.344 0.265 0.422l14.529 7.014c0.064 0.031 0.134 0.047 0.204 0.047s0.139-0.015 0.204-0.047l14.529-7.014c0.162-0.078 0.265-0.242 0.265-0.422v-17.034c0-0.18-0.103-0.344-0.265-0.422zM16.002 0.989l13.451 6.494-3.899 1.882c-0.025-0.019-0.051-0.036-0.079-0.050l-13.36-6.449 3.887-1.877zM11.056 3.396l13.432 6.484-2.751 1.328-13.426-6.481 2.745-1.331zM24.802 10.769v4.909l-2.57 1.24v-4.909l2.57-1.241zM30.062 24.223l-13.592 6.561v-15.993l3.242-1.565c0.233-0.113 0.331-0.393 0.218-0.626s-0.393-0.331-0.626-0.218l-3.303 1.595-1.3-0.627c-0.233-0.113-0.513-0.015-0.626 0.218s-0.015 0.513 0.218 0.626l1.239 0.598v15.993l-13.592-6.561v-15.993l13.259 6.451c0.066 0.032 0.135 0.047 0.203 0.047 0.174 0 0.342-0.098 0.422-0.265 0.113-0.233 0.015-0.513-0.218-0.626l-13.057-6.354 4.657-2.248 14.081 6.798c0.002 0.003 0.004 0.005 0.006 0.008v5.625c0 0.161 0.083 0.311 0.22 0.397 0.076 0.048 0.163 0.072 0.249 0.072 0.070 0 0.139-0.015 0.204-0.047l3.507-1.693c0.162-0.078 0.265-0.242 0.265-0.422v-5.656l4.323-2.087v15.993z"></path>
<path  d="M5.808 22.405l-2.132-1.029c-0.233-0.113-0.513-0.015-0.626 0.218s-0.015 0.513 0.218 0.626l2.132 1.029c0.066 0.032 0.135 0.047 0.203 0.047 0.174 0 0.342-0.098 0.422-0.265 0.113-0.233 0.015-0.513-0.218-0.626z"></path>
<path  d="M7.772 21.128l-4.092-1.975c-0.233-0.113-0.513-0.015-0.626 0.218s-0.015 0.513 0.218 0.626l4.092 1.975c0.066 0.032 0.135 0.047 0.203 0.047 0.174 0 0.342-0.098 0.422-0.265 0.113-0.233 0.015-0.514-0.218-0.626z"></path>
</symbol>
<symbol id="icon-mesto" viewBox="0 0 23 32">
<path  d="M11.25 0c-6.203 0-11.25 5.047-11.25 11.25 0 2.096 0.581 4.141 1.679 5.916l8.93 14.391c0.171 0.276 0.473 0.443 0.797 0.443 0.002 0 0.005 0 0.007 0 0.327-0.003 0.629-0.175 0.797-0.456l8.703-14.53c1.038-1.737 1.587-3.73 1.587-5.764 0-6.203-5.047-11.25-11.25-11.25zM19.304 16.051l-7.912 13.21-8.119-13.084c-0.915-1.477-1.41-3.181-1.41-4.928 0-5.169 4.218-9.387 9.387-9.387s9.381 4.218 9.381 9.387c0 1.695-0.463 3.355-1.327 4.801z"></path>
<path  d="M11.25 5.625c-3.102 0-5.625 2.523-5.625 5.625 0 3.082 2.482 5.625 5.625 5.625 3.181 0 5.625-2.577 5.625-5.625 0-3.102-2.523-5.625-5.625-5.625zM11.25 15.012c-2.079 0-3.763-1.69-3.763-3.762 0-2.068 1.695-3.763 3.763-3.763s3.756 1.695 3.756 3.763c0 2.043-1.645 3.762-3.756 3.762z"></path>
</symbol>
<symbol id="icon-dost" viewBox="0 0 32 32">
<path  d="M3.75 28.093v2.969c0 0.518 0.42 0.938 0.938 0.938h26.375c0.518 0 0.938-0.42 0.938-0.938v-28.25c0-0.518-0.42-0.938-0.938-0.938h-2.812v-0.938c0-0.518-0.42-0.938-0.938-0.938s-0.938 0.42-0.938 0.938v0.938h-1.875v-0.938c0-0.518-0.42-0.938-0.938-0.938s-0.938 0.42-0.938 0.938v0.938h-9.437v-0.938c0-0.518-0.42-0.938-0.938-0.938s-0.938 0.42-0.938 0.938v0.938h-1.875v-0.938c0-0.518-0.42-0.938-0.938-0.938s-0.938 0.42-0.938 0.938v0.938h-2.875c-0.518 0-0.938 0.42-0.938 0.938v19.75h-2.813c-0.518 0-0.938 0.42-0.938 0.938 0 2.264 1.613 4.158 3.75 4.593zM5.625 30.125v-1.938h21.688c1.054 0 2.028-0.35 2.812-0.94v2.877h-24.5zM7.563 3.75v0.938c0 0.518 0.42 0.938 0.938 0.938s0.938-0.42 0.938-0.938v-0.938h1.875v0.938c0 0.518 0.42 0.938 0.938 0.938s0.938-0.42 0.938-0.938v-0.938h9.437v0.938c0 0.518 0.42 0.938 0.938 0.938s0.938-0.42 0.938-0.938v-0.938h1.875v0.938c0 0.518 0.42 0.938 0.938 0.938s0.938-0.42 0.938-0.938v-0.938h1.875v3.813h-24.5v-3.813h1.938zM5.625 9.438h24.5v14.062c0 1.551-1.262 2.813-2.812 2.813s-2.812-1.262-2.812-2.813c0-0.518-0.42-0.938-0.938-0.938h-17.937v-13.125zM22.719 24.438c0.141 0.692 0.435 1.33 0.845 1.875h-18.877c-1.222 0-2.265-0.784-2.652-1.875h20.684z"></path>
<path  d="M12.25 11.313h-1.875c-0.518 0-0.938 0.42-0.938 0.938s0.42 0.938 0.938 0.938h1.875c0.518 0 0.938-0.42 0.938-0.938s-0.42-0.938-0.938-0.938z"></path>
<path  d="M18.875 11.313h-1.938c-0.518 0-0.938 0.42-0.938 0.938s0.42 0.938 0.938 0.938h1.938c0.518 0 0.938-0.42 0.938-0.938s-0.42-0.938-0.938-0.938z"></path>
<path  d="M23.562 13.188h1.875c0.518 0 0.938-0.42 0.938-0.938s-0.42-0.938-0.938-0.938h-1.875c-0.518 0-0.938 0.42-0.938 0.938s0.42 0.938 0.938 0.938z"></path>
<path  d="M12.25 15.063h-1.875c-0.518 0-0.938 0.42-0.938 0.938s0.42 0.938 0.938 0.938h1.875c0.518 0 0.938-0.42 0.938-0.938s-0.42-0.938-0.938-0.938z"></path>
<path  d="M18.875 15.063h-1.938c-0.518 0-0.938 0.42-0.938 0.938s0.42 0.938 0.938 0.938h1.938c0.518 0 0.938-0.42 0.938-0.938s-0.42-0.938-0.938-0.938z"></path>
<path  d="M23.562 16.938h1.875c0.518 0 0.938-0.42 0.938-0.938s-0.42-0.938-0.938-0.938h-1.875c-0.518 0-0.938 0.42-0.938 0.938s0.42 0.938 0.938 0.938z"></path>
<path  d="M12.25 18.812h-1.875c-0.518 0-0.938 0.42-0.938 0.938s0.42 0.938 0.938 0.938h1.875c0.518 0 0.938-0.42 0.938-0.938s-0.42-0.938-0.938-0.938z"></path>
<path  d="M18.875 18.812h-1.938c-0.518 0-0.938 0.42-0.938 0.938s0.42 0.938 0.938 0.938h1.938c0.518 0 0.938-0.42 0.938-0.938s-0.42-0.938-0.938-0.938z"></path>
<path  d="M25.438 20.687c0.518 0 0.938-0.42 0.938-0.938s-0.42-0.938-0.938-0.938h-1.875c-0.518 0-0.938 0.42-0.938 0.938s0.42 0.938 0.938 0.938h1.875z"></path>
</symbol>
</defs>
</svg>
