<svg aria-hidden="true"  version="1.1" xmlns="http://www.w3.org/2000/svg" xmlns:xlink="http://www.w3.org/1999/xlink">
<defs>
<symbol id="icon-ukraine" viewBox="0 0 47 32">
<path fill="blue"  d="M30.689 25.055l0.179 0.389 0.036 0.177 0.353 0.099-0.196 0.343-0.265-0.050-0.052 0.233-0.433-0.054-0.351 0.403h-0.349l-0.741 0.358-0.093 0.139-0.014 0.281-0.49 0.096-0.486 0.435 0.070 0.336 0.305 0.105 0.162-0.070 0.202-0.202 0.542-0.014 0.799 0.708 0.295 0.012 0.221-0.055 0.628 0.437 0.176 0.637-0.057 0.341-0.273 0.156-0.011 0.171 0.041 0.369-0.285 0.271-0.114 0.206 0.168 0.191 0.448 0.066 0.198 0.291 0.447 0.141 0.088-0.264 0.199 0.229 0.36-0.108 0.436-0.372 0.296-0.296 0.343-0.699 0.82-0.416 0.383 0.025 0.208-0.25 0.355 0.289 0.11-0.121 0.040-0.321 0.219-0.123 0.121-0.176 0.266-0.051 0.102-0.42 0.359-0.304 0.344-0.029 0.563 0.537 0.421-0.024 0.203-0.312 0.482 0.201 0.327-0.214 0.26-0.090-0.246-0.419 0.165-0.507 0.172-0.215 0.385-0.036-0.079-0.216-0.681-0.050-0.809-0.063-0.256 0.619-0.334-0.212-0.157-0.213-0.301 0.385-0.41 0.198-0.421 0.312-0.605-0.255-0.323-0.054-0.331-0.36 0.253-0.372-0.217-0.397-0.458-0.157-0.101-0.189h-0.33v-0.365l-0.337-0.125-0.208-0.233-0.282-0.067-0.117-0.286-0.433-0.070-0.203 0.433-0.211-0.141-0.026-0.38-0.137-0.097-0.212 0.292-0.518-0.476-0.27-0.269-0.328 0.351zM6.349 6.516l0.27-0.153 0.447 0.408-0.193 0.33 0.076 0.186 0.262-0.067 0.326 0.41 0.429-0.101 0.433 0.103 0.139-0.062 0.005-0.154-0.168-0.107 0.108-0.158 0.045-0.25 0.375-0.027v-0.245l0.177 0.027-0.012-0.156 0.188-0.106 0.496-0.065 0.6 0.233 0.076-0.152-0.029-0.371 0.22-0.091 0.164-0.17v-0.343l0.284-0.115-0.067-0.25-0.277-0.007-0.079-0.288 0.335-0.16 0.059-0.155-0.406-0.233-0.176-0.452h-0.588v-0.495l-0.096-0.192 0.199-0.111-0.006-0.243-0.179-0.158-0.024-0.226 0.335-0.404 0.003-0.227-0.299-0.324-0.436 0.146-0.217-0.32-0.411 0.274-1.616-0.13-0.251 0.287 0.013 0.372-0.772 0.565-0.483-0.349-0.592 0.036-0.011 0.204 0.307 0.641-0.322 0.412 0.641 0.73 0.091 0.756 0.634 0.562-0.674 0.055 0.283 0.543 0.365 0.337zM19.212 4.708l0.016 0.257 0.507 0.258 0.021 0.433-0.187 0.169 0.279 0.334-0.1 0.218 0.195 0.098 0.053 0.394-0.283 0.274 0.111 0.306-0.189 0.45 0.371 0.091 0.081 0.382 0.144 0.26 0.060 0.511-0.18 0.237 0.050 0.201 0.219 0.24-0.337 0.358-0.528 0.204v0.307l0.15 0.279 0.177 0.146-0.228 0.188 0.163 0.176-0.090 0.187 0.076 0.082-0.008 0.211-0.176 0.182 0.564 0.483 0.012 0.235 0.328-0.006 0.18-0.353 0.196-0.007 0.356-0.319 0.172 0.255 0.155-0.007 0.28 0.143 0.12-0.38 0.406 0.028 0.212-0.243 0.146 0.269 0.137-0.089 0.347 0.059 0.056-0.224 0.296-0.324 0.28-0.358-0.164-0.223 0.2-0.092-0.034-0.65 0.201-0.372 0.475-0.104 0.505 0.266 0.286-0.203 0.26-0.44-0.028-0.341 0.242-0.192 0.1-0.371 0.232-0.049 0.181-0.419-0.438-0.361 0.145-0.31-0.437-0.312-0.687 0.442-0.551 0.043-0.45-0.33 0.084-0.288-0.428-0.408-0.769 0.044 0.075-0.368-0.272-0.252-0.19-0.322 0.083-0.531-0.421-0.563-0.001 0-0.26-0.188-0.157-0.563-0.202-0.154-0.687-0.025-0.198 0.251-0.313-0.047-0.038-0.242-0.181 0.010-0.369 0.528-0.172-0.028 0.088 0.239-0.321 0.33zM14.431 12.894l0.24-0.188 0.318 0.247 0.228-0.099 0.025-0.284-0.082-0.537-0.256-0.484 0.105-0.181 0.081-0.29 0.032-0.172-0.113-0.181 0.205-0.198-0.343-0.261-0.382-0.396 0.113-0.543 0.212-0.062 0.032-0.417-0.102-0.383-0.174 0.124-0.331-0.308-0.466-0.518 0.214-0.257-0.173-0.395-0.15 0.017-0.227 0.034-0.275 0.176-0.251-0.027-0.387 0.401-0.35 0.413-0.25 0.176h-0.234l-0.21 0.315-0.207-0.029 0.070 0.179-0.088 0.302-0.164 0.295-0.033 0.365 0.144 0.42 0.043 0.626-0.329 0.335 0.153 0.473 0.072 0.516-0.179 0.303 0.109 0.438-0.106 0.387-0.027 0.522 0.098 0.251-0.062 0.536 0.383 0.575 0.286 0.014 0.1 0.346 0.075-0.030 0.022-0.437 0.198 0.010 0.085 0.14 0.094-0.282 0.29 0.025 0.115 0.279 0.175-0.223 0.165 0.039 0.040 0.145 0.201-0.011 0.131-0.162 0.212 0.164 0.163-0.242 0.278-0.495-0.028-1.049 0.257-0.383 0.214-0.064z"></path>
<path fill="blue"  d="M14.894 3.854l-0.162-0.127 0.006 0.34-0.21 0.156 0.060 0.254-0.205 0.333-0.050 0.323-0.407 0.234-0.013 0.362 0.122 0.194-0.084 0.202 0.182 0.329-0.189 0.312-0.065 0.3 0.199 0.454-0.202 0.242 0.418 0.465 0.282 0.262 0.214-0.153 0.134 0.505-0.038 0.484-0.218 0.064-0.095 0.456 0.349 0.362 0.357 0.272 0.264-0.092 0.445 0.007 0.384-0.107 0.259 0.126 0.241-0.234 0.389 0.151 0.303-0.032 0.256-0.249 0.357-0.048 0.076 0.531-0.074 0.358 0.188 0.288h0.544l0.41-0.236 0.247 0.011-0.13-0.242v-0.381l0.562-0.217 0.275-0.292-0.183-0.2-0.064-0.258 0.184-0.242-0.055-0.465-0.142-0.256-0.073-0.345-0.413-0.101 0.213-0.506-0.118-0.325 0.291-0.281-0.042-0.314-0.226-0.113 0.111-0.241-0.295-0.354 0.215-0.194-0.017-0.351-0.507-0.258-0.022-0.336 0.311-0.32-0.086-0.235-0.186-0.030-0.266-0.379 0.039-0.433-0.178-0.273-0.189-0.010-0.183 0.417h-0.356l-0.141 0.247-0.031 0.489-0.346-0.379-0.038-0.458-0.42-0.128-0.214 0.271-0.339-0.535-0.263 0.359-0.423 0.073-0.2-0.368-0.124 0.506-0.235 0.141-0.133-0.12-0.236 0.339zM7.679 13.099l0.31 0.007 0.082 0.149 0.196 0.112 0.126 0.306 0.479-0.020 0.461 0.343 0.068 0.417 0.277 0.112 0.358 0.305 0.324-0.186 0.208 0.152 0.19 0.339 0.428 0.096 0.099-0.089-0.391-0.587 0.063-0.545-0.097-0.249 0.028-0.546 0.102-0.376-0.112-0.45 0.181-0.307-0.067-0.482-0.166-0.512 0.337-0.344-0.040-0.581-0.147-0.426 0.036-0.398 0.168-0.301 0.078-0.267-0.109-0.28 0.019-0.283-0.419-0.044-0.269 0.085-0.367 0.317-0.484-0.029-0.241-0.038-0.132 0.168-0.062 0.528-0.087 0.37-0.399 0.222-0.401-0.020-0.128 0.151 0.067 0.369-0.342 0.045-0.206 0.33-0.369 0.104-0.159 0.231 0.2 0.181 0.063 0.418 0.122 0.436-0.1 0.243-0.017 0.194h0.318l0.061 0.172-0.268 0.185 0.128 0.274z"></path>
<path fill="blue"  d="M9.862 2.537l0.182 0.161 0.008 0.325-0.175 0.097 0.070 0.141v0.434h0.563l0.185 0.476 0.44 0.252-0.094 0.247-0.304 0.145 0.046 0.169 0.278 0.007 0.1 0.374-0.299 0.121v0.322l-0.197 0.204-0.182 0.075 0.026 0.336-0.118 0.236-0.648-0.252-0.461 0.060-0.131 0.074 0.016 0.205-0.184-0.028v0.226l-0.388 0.028-0.037 0.207-0.072 0.106 0.137 0.087-0.008 0.248-0.182 0.080-0.082 0.187 0.042 0.058 0.204-0.113 0.114 0.19-0.090 0.172-0.019 0.354 0.184 0.312 0.367 0.030 0.030-0.258 0.174-0.221 0.283 0.045 0.448 0.027 0.355-0.307 0.3-0.095 0.51 0.053-0.023 0.341 0.010 0.026 0.202 0.028 0.206-0.309h0.251l0.222-0.157 0.345-0.407 0.415-0.43 0.262 0.028 0.266-0.17 0.246-0.036 0.152-0.018 0.065-0.298 0.172-0.284-0.178-0.323 0.083-0.2-0.113-0.18 0.015-0.429 0.411-0.237 0.047-0.302 0.197-0.319-0.065-0.273 0.22-0.163-0.008-0.464 0.226 0.178 0.209-0.299 0.056-0.345-0.178 0.022-0.21-0.235-0.311 0.274-0.232-0.033-0.040-0.398-0.225-0.080-0-0.285-0.349-0.090-0.127 0.19h-0.296l-0.496-0.365-0.518 0.040-0.171-0.237-0.484 0.013-0.274-0.378-0.53 0.039-0.146-0.11-0.378 0.26-0.003 0.25-0.331 0.4 0.017 0.162z"></path>
<path fill="blue"  d="M2.265 12.633l0.134 0.353 0.431 0.082 0.305 0.43 0.343 0.069 0.272 0.272 0.106-0.395 0.014-0.516 0.249-0.262 0.28-0.427 0.273 0.081 0.37-0.116 0.494 0.021 0.41-0.083 0.329 0.033 0.075-0.117-0.231-0.122-0.031-0.3 0.127-0.366 0.066-0.395 0.316-0.1 0.395 0.059 0.121 0.11 0.17-0.245 0.367-0.104 0.21-0.336 0.296-0.039-0.058-0.324 0.177-0.209 0.417 0.021 0.349-0.194 0.079-0.333 0.025-0.209-0.404-0.033-0.217-0.367 0.022-0.394 0.077-0.148-0.052-0.088-0.198 0.109-0.11-0.15 0.087-0.2-0.382-0.091-0.459 0.108-0.326-0.409-0.279 0.072-0.117-0.286 0.181-0.308-0.358-0.327-0.27 0.153-0.341-0.315 0.022 0.442-0.335 0.418-0.769 0.052-0.294 0.473-0.945 0.722-0.551 0.629-0.925 0.808-0.394 0.546 0.048 0.316 0.282 0.417-0.273 0.585 0.344 0.37 0.056 0.558zM25.446 17.526l0.419 0.339-0.098 0.438 0.536-0.026 0.213 0.251 0.304-0.33 0.42 0.089 0.395 0.12 0.346-0.151 0.020-0.354 0.094-0.415 0.262 0.105 0.352-0.339 0.278 0.090 0.721-0.673 0.452-0.352-0.229-0.959 0.875-0.581-0.441-0.224-0.184-0.268 0.26-0.122 0.456 0.049 0.106-0.061-0.422-0.33-0.434 0.007-0.542-0.102-0.098-0.44-0.48-0.158-0.76-0.026 0.009 0.022-0.008 0.403-0.674 0.24-0.381-0.416-0.423-0.019-0.222 0.241-0.062 0.463-0.316-0.188-0.377 0.37-0.174-0.34-0.306-0.025-0.419 0.070 0.013 0.299-0.365 0.476-0.352-0.1-0.362 0.16-0.405-0.149-0.696-0.053-0.368 0.42-0.069 0.503-0.329-0.187-0.478 0.506-0.18-0.18-0.329 0.209-0.256 0.308-0.238-0.175-0.18 0.186 0.444 0.326 0.108 0.244 0.121 0.249 0.485 0.014 0.076 0.086 0.218-0.192 0.51 0.029 0.208 0.114 0.212-0.251 0.194-0.018 0.134 0.248 0.328-0.142 0.265-0.266 0.387 0.062 0.204 0.455 0.422-0.086 0.269 0.073-0.016 0.199 0.294-0.259 0.448 0.040-0.066 0.354-0.121 0.103z"></path>
<path fill="blue"  d="M39.012 14.588l-0.269 0.172-0.083-0.348-0.14-0.029-0.047 0.196-0.284-0.017-0.183-0.195-0.274 0.463-0.273 0.044-0.052-0.384-0.361-0.264-0.027-0.326-0.387-0.145-0.049-0.427-0.237-0.136-0.36 0.29-0.424-0.215-0.498-0.007-0.714-0.644-0.428 0.007-0.343 0.007-0.276 0.034-0.329 0.192-0.327 0.123-0.438 0.445-0.102 0.301 0.138 0.248-0.094 0.407-0.509-0.015-0.425-0.133-0.137-0.031-0.165 0.096-0.459-0.049-0.156 0.073 0.121 0.175 0.544 0.275-0.942 0.625 0.228 0.955-0.489 0.381-0.724 0.677-0.032 0.351 0.16 0.194-0.059 0.572-0.251 0.238 0.028 0.135 0.194 0.232 0.251-0.040 0.448 0.139 0.103 0.207 0.482-0.393 0.365 0.358 0.596-0.094 0.509-0.099 0.431 0.144 0.334-0.161 0.475-0.205 0.401 0.063 0.602-0.072 0.077-0.609-0.229-0.132 0.048-0.318-0.18-0.051-0.079-0.2 0.223-0.249-0.205-0.148 0.071-0.525 0.236 0.063 0.23-0.129 0.753-0.007 0.261-0.087 0.285 0.17 0.438-0.306 0.391 0.266 0.371-0.193 0.047 0.21 0.245 0.029-0.015 0.271 0.22 0.262-0.089 0.247 0.073 0.069 0.247-0.11 0.221 0.168 0.14-0.127 0.352-0 0.082-0.158 0.237-0.225-0.184-0.165 0.054-0.51 0.426-0.032 0.078 0.155 0.257 0.006 0.064-0.249-0.117-0.149 0.135-0.096 0.006-0.324-0.297-0.166-0.022-0.657 0.171-0.296-0.081-0.081z"></path>
<path fill="blue"  d="M34.747 7.929l-0.261 0.089-0.252 0.375-0.277-0.099-0.398 0.37-0.012-0.001-0.056 0.186 0.089 0.171-0.273 0.266 0.107 0.085 0.060 0.244 0.381 0.061 0.092 0.165 0.338-0.074v0.43l0.249 0.306 0.18-0.012 0.14-0.14 0.146 0.203-0.073 0.133 0.203 0.182-0.124 0.19 0.115 0.239-0.412-0.007 0.107 0.19-0.091 0.303-0.293 0.3-0.38-0.084-0.080-0.086-0.099 0.13-0.064 0.287 0.132 0.211 0.437-0.007 0.715 0.645 0.487 0.007 0.395 0.201 0.362-0.292 0.318 0.183 0.048 0.419 0.389 0.146 0.028 0.34 0.36 0.263 0.045 0.337 0.157-0.025 0.308-0.521 0.233 0.248 0.187 0.011 0.044-0.181-0.020-0.683 0.269 0.111 0.194-0.174h0.299l0.153 0.118 0.092-0.185 0.509-0.516 0.062-0.33 0.292-0.395 0.283 0.361 0.176-0.162 0.142 0.133 0.006 0.215 0.321 0.080 0.092 0.164 0.324-0.056 0.29-0.206 0.013-0.276-0.013-0.376-0.235-0.309-0.302-0.4-0.16-0.473 0.202-0.362-0.090-0.332 0.145-0.29-0.131-0.406 0.114-0.334 0.018-0.241-0.476-0.526-0.301-0.040-0.479-0.534 0.037-0.444-0.353 0.013-0.117-0.429-0.38 0.045-0.025 0.289-0.316 0.187-0.637-0.039-0.447 0.397-0.028 0.302-0.261 0.049-0.463-0.575-0.155 0.274-0.254-0.032-0.377-0.586-0.628 0.025-0.518 0.587-0.096-0.131-0.184 0.178-0.294-0.072z"></path>
<path fill="blue"  d="M31.73 7.662l-0.12-0.417-0.398 0.281-0.423-0.236-0.439 0.308-0.422-0.114h-0.527l-0.253-0.182-0.119 0.125-0.362 0.014-0.534 0.5-0.327 0.16-0.534-0.036-0.304-0.191-0.155 0.119-0.254 0.247-0.21-0.086-0.173 0.401 0.473 0.351 0.063 0.356 0.45 0.401-0.096 0.484 0.414 0.197 0.057 0.304 0.562 0.471-0.211 1.010 0.348 0.894 0.804 0.028 0.533 0.175 0.096 0.433 0.484 0.092 0.454-0.007 0.483 0.377 0.147 0.034 0.418 0.13 0.434 0.013 0.073-0.315-0.14-0.252 0.12-0.351 0.463-0.47 0.338-0.127 0.337-0.197 0.296-0.036 0.277-0.006-0.124-0.198 0.075-0.336 0.165-0.217 0.128 0.136 0.313 0.069 0.248-0.255 0.076-0.252-0.157-0.281 0.421 0.007-0.079-0.164 0.111-0.171-0.199-0.178 0.079-0.144-0.063-0.088-0.095 0.096-0.25 0.016-0.292-0.359v-0.361l-0.3 0.065-0.102-0.182-0.395-0.064-0.065-0.269-0.156-0.123 0.295-0.288-0.077-0.148 0.061-0.199-0.184-0.014-0.399 0.206-0.65 0.069 0.096-0.473-0.351-0.283 0.028-0.291-0.277-0.21z"></path>
<path fill="blue"  d="M20.853 15.643l0.118 0.102 0.363-0.231 0.167 0.167 0.465-0.492 0.281 0.16 0.056-0.412 0.409-0.467 0.746 0.057 0.385 0.142 0.359-0.159 0.328 0.094 0.315-0.411-0.015-0.339 0.497-0.083 0.359 0.030 0.145 0.284 0.344-0.337 0.266 0.158 0.049-0.369 0.263-0.286 0.492 0.022 0.368 0.402 0.574-0.204 0.006-0.333-0.39-1.002 0.206-0.987-0.548-0.459-0.054-0.292-0.433-0.206 0.099-0.5-0.437-0.389-0.062-0.352-0.459-0.341-0.188 0.040-0.094 0.35-0.23 0.182 0.027 0.324-0.281 0.476-0.338 0.241-0.522-0.275-0.412 0.090-0.173 0.321 0.035 0.681-0.161 0.074 0.142 0.193-0.318 0.407-0.285 0.312-0.069 0.275-0.388-0.066-0.183 0.119-0.132-0.244-0.163 0.187-0.384-0.027-0.129 0.41-0.344-0.176-0.178 0.008-0.147-0.217-0.31 0.277-0.178 0.007-0.18 0.354-0.373 0.007 0.007 0.134-0.366 0.269 0.025 0.187 0.181-0.061-0.046 0.334 0.158 0.046 0.066 0.388 0.076 0.29 0.247 0.007 0.042 0.369 0.289 0.021-0.008 0.367 0.020 0.351zM29.475 1.114l-0.238 0.238 0.007 0.348-0.552 0.276-0.149 0.284 0.019 0.336 0.18 0.111 0.058 0.913-0.367 0.333 0.212 0.445-0.315 0.456 0.042 0.21 0.535 0.348 0.060 0.53-0.196 0.195 0.16 0.36-0.294 0.294 0.18 0.246-0.113 0.326 0.287-0.011 0.145-0.152 0.288 0.207h0.513l0.396 0.107 0.449-0.315 0.423 0.236 0.448-0.316 0.143 0.498 0.291 0.22-0.028 0.292 0.356 0.286-0.084 0.415 0.529-0.056 0.405-0.21 0.264 0.020 0.407-0.379 0.264 0.095 0.233-0.346 0.307-0.105 0.275 0.067 0.161-0.155-0.183-0.249 0.024-0.2-0.396-0.064-0.124-0.651 0.142-0.503-0.489-0.819 0.141-0.192-0.131-0.151-0.373 0.152-0.107-0.617-0.43 0.012-0.405 0.169-0.424 0.029-0.027-0.291-0.465-0.012-0.303 0.165-0.213-0.196 0.181-0.349-0.4-0.267 0.203-0.232v-0.297l-0.418-0.445 0.253-0.313 0.497-0.089 0.033-0.24-0.835-0.809-0.013-0.588-0.762-0.712-0.577 0.429-0.141-0.339-0.169-0.015-0.185 0.638 0.392 0.4z"></path>
<path fill="blue"  d="M22.444 5.675l0.17 0.288 0.296 0.275-0.063 0.312 0.701-0.040 0.487 0.465-0.082 0.281 0.382 0.28 0.503-0.040 0.714-0.46 0.534 0.381-0.147 0.314 0.409 0.337 0.193 0.079 0.221-0.214 0.202-0.155 0.334 0.21 0.493 0.033 0.297-0.145 0.529-0.495 0.115-0.332-0.195-0.267 0.303-0.303-0.159-0.361 0.207-0.207-0.051-0.455-0.532-0.346-0.055-0.275 0.309-0.446-0.218-0.457 0.382-0.347-0.053-0.834-0.18-0.111-0.023-0.399 0.171-0.326 0.53-0.265-0.007-0.332 0.206-0.206-0.37-0.377 0.194-0.668-0.444-0.039-0.568 0.516-0.278-0.119-0.294 0.201-0.417-0.35-0.461 0.012-0.090 0.877-0.515 0.265-0.374-0.069-0.194-0.129-1.304-0.064-0.31 0.38-0.175-0.276h-0.418l-0.074 0.321-0.537 0.524-0.187 0.679-0.21 0.053-0.096 0.313 0.012 0.29 0.158 0.131-0 0.391 0.174 0.12-0.074 0.432-0.399 0.058 0.415 0.556-0.084 0.537zM40.19 20.923l0.065-0.271-0.36-0.209-0.407-0.298 0.056-0.429 0.364-0.028 0.068-0.285 0.276-0.090 0.060-0.365-0.37-0.11-0.356-0.288-0.462-0.014-0.166-0.355-0.382-0.382-0.187-0.411-0.040 0.038-0.098 0.189h-0.369l-0.166 0.151-0.236-0.179-0.252 0.112-0.149-0.139 0.091-0.253-0.211-0.251 0.013-0.228-0.227-0.027-0.037-0.164-0.322 0.168-0.385-0.262-0.436 0.304-0.297-0.177-0.239 0.079-0.745 0.007-0.241 0.135-0.181-0.048-0.053 0.39 0.238 0.171-0.249 0.278 0.047 0.119 0.208 0.060-0.050 0.334 0.228 0.131-0.090 0.722-0.674 0.081-0.389-0.062-0.453 0.196-0.304 0.146 0.181 0.243v0.407l0.262 0.163 0.191-0.28 0.22 0.321v0.493l0.265 0.418-0.033 0.267 0.394 0.14 0.22 0.426-0.403 0.476 0.345 0.12-0.14 0.356 0.578 0.247 0.388 0.081 0.154 0.642 0.23-0.188 0.137-0.309 0.145 0.339 0.181 0.043 0.73-0.755 0.664-0.704 0.738-0.080h0.216l0.177 0.237 0.433-0.545 0.373-0.133 0.295-0.14 0.282 0.184 0.168-0.349 0.217-0.144-0.021-0.342 0.278-0.114z"></path>
<path fill="blue"  d="M34.38 23.278l-0.656-0.28 0.137-0.351-0.376-0.13 0.443-0.523-0.182-0.351-0.424-0.151 0.037-0.302-0.262-0.414v-0.492l-0.141-0.206-0.169 0.247-0.362-0.226v-0.425l-0.186-0.25-0.415-0.139-0.491 0.096-0.637 0.1-0.342-0.336-0.503 0.411-0.132-0.265-0.398-0.124-0.159 0.025 0.152 0.108 0.024 0.479-0.241 0.025 0.070 0.122 0.119 0.097 0.029 0.579-0.106 0.139-0.35 0.11-0.142 0.271 0.362 0.204 0.079 0.28-0.183 0.029v0.27l-0.34 0.062v0.278l-0.463 0.080-0.134-0.261h-0.26l-0.116 0.178-0.372 0.047-0.048 0.217-0.263-0.18-0.104 0.11-0.090 0.188-0.512 0.046 0.072 0.189 0.41 0.323 0.381-0.055 0.042 0.112 0.526 0.071-0.362 0.504-0.428-0.304-0.523-0.038-0.692-0.014-0.215-0.139-0.375 0.143 0.299 0.365 0.381-0.203 0.373 0.173 0.403-0.069 0.083 0.33-0.504 0.202-0.239-0.088-0.187 0.187 0.049 0.137 0.39 0.049 0.422-0.055 0.262 0.315 0.255-0.027 0.21 0.432 0.412-0.036 0.474-0.211 0.463 0.040 0.53-0.025 0.167-0.242 0.133 0.213 0.316-0.399 0.117 0.483 0.308 0.037 0.195 0.113 0.27-0.24 0 0.001 0.316-0.339 0.208-0.319 0.244 0.257 0.222-0.196 0.393 0.418 0.305-0.624 0.409 0.594 0.149-0.248 0.3 0.24 0.144 0.176-0.162 0.148 0.167 0.312 0.222-0.064 0.084-0.335-0.071-0.325 0.294-0.115 0.148 0.197-0.069 0.236v0.194l0.2 0.116 0.142-0.175 0.037-0.321-0.093-0.318 0.112-0.385 0.178 0.163 0.31-0.253-0.151-0.63-0.347-0.072zM44.872 16.254l-0.52-0.022-0.083-0.396-0.382-0.021-0.226-0.48-0.364 0.054-0.161-0.152 0.136-0.243-0.135-0.246-0.336-0.14-0.197-0.51 0.056-0.45-0.034-0.435-0.239-0.317-0.398-0.045-0.307 0.218-0.397 0.069-0.103-0.183-0.345-0.087-0.007-0.242-0.066-0.061-0.185 0.171-0.272-0.347-0.22 0.298-0.063 0.336-0.517 0.524-0.129 0.259-0.208-0.16h-0.242l-0.208 0.187-0.203-0.083 0.016 0.554 0.19 0.040 0.069 0.289 0.23-0.147 0.169 0.169-0.19 0.328 0.020 0.59 0.299 0.167-0.008 0.411-0.1 0.071 0.090 0.114-0.089 0.347-0.367-0.008-0.075-0.15-0.308 0.023-0.043 0.405 0.218 0.195-0.19 0.18 0.192 0.422 0.381 0.381 0.152 0.324 0.44 0.014 0.365 0.295 0.421 0.125-0.079 0.481-0.279 0.090-0.071 0.298-0.357 0.028-0.041 0.32 0.366 0.268 0.407 0.236-0.088 0.367-0.263 0.108 0.015 0.241 0.467-0.311 0.248-0.087 0.177 0.142 0.443-0.81 0.261-0.092 0.135 0.149 0.29-0.023 0.118-0.171 0.765-0.014 0.139 0.278 0.135-0.407-0.148-0.351 0.312-0.312-0.351-0.1 0.243-0.414v-0.784l0.432-0.237 0.351-0.052 0.372-0.26 0.133-0.746 0.48-0.051-0.031-0.305-0.105-0.117z"></path>
<path fill="blue"  d="M47.335 14.74l-0.415 0.119 0.163-0.444-0.257-0.308 0.012-0.386-0.508-0.078-0.029-0.611 0.339-0.381 0.423 0.066 0.202-0.157-0.034-0.137-0.267 0.134-0.258-0.217-0.31-0.013-0.282-0.163 0.077-0.325 0.537-0.157 0.088-0.327 0.388-0.491-0.049-0.416-0.431-0.471 0.304-0.468-0.352 0.081-0.356 0.369-0.252-0.182-0.37 0.014-0.147-0.494-0.318-0.106-0.342 0.178-0.437-0.592-0.396 0.408-0.436-0.273h-0.282l-0.246-0.298-0.456 0.076-0.425-0.099-0.052-0.287-0.206-0.039-0.051 0.581-0.327 0.157-0.019 0.245-0.108 0.318 0.133 0.412-0.146 0.292 0.090 0.334-0.2 0.359 0.145 0.428 0.294 0.39 0.25 0.329 0.014 0.404-0.012 0.261 0.41 0.046 0.274 0.363 0.036 0.466-0.055 0.438 0.178 0.461 0.33 0.138 0.17 0.308-0.128 0.228 0.089 0.084 0.385-0.057 0.231 0.491 0.395 0.021 0.083 0.395 0.492 0.020 0.145 0.161 0.036 0.345 0.221 0.163 0.349-0.237 0.174-0.047 0.219 0.245 0.377-0.176 0.43 0.078 0.251-0.148-0.141-0.755 0.094-0.306 0.054-0.436 0.33-0.183-0.112-0.14zM6.137 16.296l0.014-0.465-0.43-0.436-0.225 0.157-0.232-0.174-0.013-0.585-0.33 0.139-0.359-0.306-0.173-0.415-0.328-0.249-0.308-0.007-0.314-0.315-0.35-0.070-0.305-0.43-0.443-0.085-0.162-0.428-0.339-0.327-0.31-0.027-0.077-0.166-0.126 0.009-0.088 0.443-0.536 0.418-0.104 0.713-0.133 0.192-0.311 0.039-0.155 0.286 0.029 0.412 0.308 0.019 0.197 0.766 0.47 0.039 0.192 0.651 0.429-0.175 0.24 0.62h0.366l0.369-0.472 0.695 0.715 0.27-0.193 0.727 0.511 0.377-0.258 0.587 0.568 0.556-0.422 0.53 0.095 0.067-0.296 0.013-0.222-0.284-0.27zM13.98 14.939l-0.217 0.006-0.199 0.296-0.218-0.169-0.105 0.13-0.298 0.017-0.044-0.161-0.071-0.016-0.227 0.29-0.148-0.359-0.181-0.016-0.128 0.384-0.151-0.249-0.078-0.004-0.020 0.409-0.202 0.081-0.108-0.376-0.233-0.012-0.142 0.127-0.502-0.112-0.199-0.355-0.153-0.112-0.328 0.188-0.39-0.333-0.264-0.107-0.236 0.183 0.116 0.271-0.015 0.35-0.288 0.303-0.116-0.117-0.287 0.075-0.422 0.416-0.435 0.421-0.394 0.455-0.046 0.479 0.15 0.207-0.237 0.541h0.35l0.687-0.647 1.292-0 0.198-0.237 0.82 0.078 0.469-0.82 1.095-0.098 0.243-0.669 0.505 0.303 0.213-0.213 0.431 0.176 0.276-0.295 0.258 0.119 0.276-0.241-0.11-0.352-0.184-0.235z"></path>
<path fill="blue"  d="M7.169 17.344l0.051-0.533 0.413-0.476 0.437-0.423 0.437-0.431 0.351-0.091 0.091 0.091 0.212-0.224 0.013-0.302-0.133-0.311 0.283-0.219-0.063-0.384-0.413-0.308-0.506 0.022-0.137-0.332-0.192-0.11-0.071-0.129-0.314-0.007-0.177-0.378 0.273-0.189-0.023-0.063h-0.348l0.025-0.291 0.095-0.229-0.115-0.414-0.061-0.395-0.341-0.308-0.354-0.053-0.253 0.080-0.059 0.354-0.123 0.356 0.025 0.241 0.269 0.142-0.147 0.23-0.365-0.037-0.408 0.083-0.49-0.021-0.379 0.119-0.24-0.071-0.252 0.383-0.232 0.246-0.014 0.496-0.113 0.421 0.268 0.006 0.365 0.277 0.174 0.417 0.307 0.262 0.391-0.166 0.015 0.663 0.156 0.117 0.233-0.162 0.5 0.507-0.014 0.464 0.285 0.271-0.015 0.264-0.073 0.322 0.686 0.903 0.211-0.483-0.141-0.195zM26.808 22.393l0.159-0.167 0.223 0.152 0.035-0.157 0.391-0.050 0.12-0.183h0.35l0.13 0.252 0.341-0.059v-0.277l0.34-0.062v-0.271l0.163-0.026-0.046-0.164-0.4-0.226 0.192-0.367 0.357-0.112 0.074-0.097-0.027-0.516-0.103-0.083-0.138-0.239 0.287-0.030-0.018-0.367-0.203-0.144-0.225-0.268-0.041-0.197 0.262-0.248 0.052-0.51-0.159-0.194 0.034-0.366-0.225-0.073-0.355 0.341-0.223-0.089-0.072 0.32-0.022 0.395-0.416 0.182-0.42-0.128-0.374-0.079-0.334 0.363-0.245-0.289-0.6 0.029 0.11-0.491-0.454-0.368 0.171-0.147 0.045-0.242-0.328-0.029-0.414 0.365 0.026-0.328-0.188-0.051-0.466 0.094-0.212-0.474-0.306-0.049-0.247 0.248-0.408 0.177-0.143-0.266-0.111 0.010-0.232 0.276-0.249-0.136-0.461-0.026-0.193 0.17 0.075 0.084-0.268 0.152 0.134 0.305 0.204 0.153-0.048 0.458 0.299 0.222-0.068 0.529 0.36 0.093 0.377-0.080 0.101 0.143 0.137-0.185 0.356 0.459-0.115 0.397-0.027 0.378 0.206 0.308 0.292 0.056 0.16-0.131 0.277 0.179-0.189 0.215 0.313 0.135 0.221 0.267-0.154 0.485-0.46-0.007-0.13 0.096 0.028 0.169 0.412 0.329v0.383l-0.165 0.293h0.269l0.207 0.158 0.438-0.414 0.061-0.291 0.239 0.147-0.029 0.246-0.022 0.26 0.104-0.024 0.156-0.198 0.462 0.238 0.238-0.227-0.095-0.366 0.227-0.076 0.053 0.14 0.489-0.044 0.076-0.159z"></path>
<path fill="blue"  d="M24.021 22.365l-0.406-0.323-0.041-0.247 0.189-0.14 0.428 0.007 0.123-0.389-0.181-0.219-0.395-0.17 0.2-0.228-0.153-0.098-0.145 0.118-0.36-0.069-0.238-0.358 0.029-0.413 0.107-0.366-0.268-0.346-0.14 0.189-0.134-0.189-0.344 0.073-0.445-0.115 0.071-0.552-0.298-0.222 0.049-0.458-0.185-0.138-0.171-0.389 0.245-0.139-0.116-0.131-0.499-0.014-0.127-0.26-0.309 0.112-0.264-0.132-0.266 0.085-0.042 0.361-0.533 0.031-0.119-0.175-0.209 0.189-0.392-0.045-0.26-0.253-0.198 0.022-0.013 0.32-0.364 0.216 0.264 0.381 0.29-0.309 0.294 0.317v0.42l0.141 0.341-0.183 0.448-0.201 0.438 0.489 0.263 0.348 0.696 0.221-0.331 0.271 0.197-0.065 0.237-0.077 0.555 0.18 0.28-0.158 0.368 0.445 0.289 0.38-0.027 0.226 0.48-0.092 0.538 0.081 0.217-0.111 0.198 0.443 0.392-0.165 0.309-0.585-0.175-0.276-0.324-0.32 0.448-0.44-0.293-0.020-0.215-0.641 0.589-0.113-0.339 0.024-0.438-0.383 0.101-0.271 0.271-0.075 0.683 0.381 0.286-0.303 0.372 0.054 0.423-0.609 0.159-0.065 0.546-0.431 0.175-0.28 0.354 0.14 0.357-0.090 0.387-0.588-0.082-0.269 0.097 0.197 0.278 0.102 0.408 0.594 0.278 0.583 0.122 0.108-0.687 0.259 0.173 0.093 0.326 0.92-0.668h0.677l0.483 0.276 0.089 0.557 0.162-0.305-0.049-0.468-0.32-0.236 0.145-0.184-0.247-0.198 0.027-0.535 0.147-0.514 0.311 0.213-0.013 0.502 0.149 0.158 0.046-0.184-0.043-0.304 0.342-0.066-0.025-0.276 0.339-0.216 0.155 0.215 0.171-0.316 0.174 0.254 0.402-0.597 0.279-0.255-0.301-0.445-0.526-0.171-0.143-0.286 0.013-0.168 0.213-0.376 0.443 0.138 0.308 0.589 0.206 0.368 0.334-0.426-0.027-0.417 0.382-0.184 0.026-0.569 0.454-0.096 0.422-0.29h0.071l0.177-0.314v-0.325z"></path>
<path fill="blue"  d="M18.149 16.902l0.301-0.033 0.267 0.26 0.329 0.038 0.249-0.226 0.145 0.213 0.423-0.024 0.040-0.346 0.345-0.11 0.263 0.132 0.27-0.098-0.083-0.188-0.5-0.367 0.291-0.299 0.233 0.172 0.188-0.226-0.136-0.118-0.022-0.387 0.006-0.296-0.28-0.020-0.042-0.366-0.238-0.007-0.091-0.351-0.058-0.343-0.175-0.051 0.038-0.276-0.152 0.050-0.044-0.327 0.369-0.272-0.019-0.371-0.601-0.515 0.213-0.22 0.006-0.149-0.090-0.098 0.090-0.187-0.183-0.198 0.218-0.18-0.1-0.082-0.281-0.013-0.408 0.235h-0.608l-0.228-0.35 0.078-0.377-0.063-0.44-0.254 0.034-0.257 0.25-0.349 0.037-0.36-0.14-0.244 0.238-0.282-0.137-0.365 0.102-0.443-0.007-0.263 0.092-0.185 0.18 0.095 0.153-0.038 0.206-0.084 0.303-0.089 0.152 0.242 0.458 0.085 0.558-0.030 0.341-0.313 0.136-0.306-0.238-0.203 0.159-0.202 0.061-0.228 0.338 0.028 1.045-0.256 0.455 0.207-0.006 0.218 0.278 0.118 0.378 0.291 0.219 0.359-0.040 0.415 0.494 0.354 0.021v0.296l0.591 0.057 0.361 0.532 0.295-0.203 0.627 0.125 0.143 0.409 0.014 0.020 0.332-0.197 0.014-0.345z"></path>
</symbol>
</defs>
</svg>
